<svg xmlns="http://www.w3.org/2000/svg" xmlns:xlink="http://www.w3.org/1999/xlink" viewBox="0 0 512 512"><defs><style>.cls-1,.cls-2{fill:none;}.cls-1{clip-rule:evenodd;}.cls-3{clip-path:url(#clip-path);}.cls-4{fill:#000d55;}.cls-10,.cls-4,.cls-5,.cls-6,.cls-8,.cls-9{fill-rule:evenodd;}.cls-12,.cls-5{fill:#ebebeb;}.cls-6{fill:#b4001a;}.cls-7{clip-path:url(#clip-path-2);}.cls-8{fill:#012169;}.cls-16,.cls-9{fill:#fff;}.cls-10{fill:#c8102e;}.cls-11{clip-path:url(#clip-path-3);}.cls-13{fill:#ab001c;}.cls-14{fill:#001454;}.cls-15{clip-path:url(#clip-path-4);}.cls-17{fill:#bf0a30;}.cls-18{fill:#002868;}</style><clipPath id="clip-path"><path id="SVGID" class="cls-1" d="M512,256c0,141.38-114.62,256-256,256A256,256,0,1,1,256,0C397.38,0,512,114.62,512,256Z"/></clipPath><clipPath id="clip-path-2"><circle id="SVGID-2" data-name="SVGID" class="cls-2" cx="256" cy="256" r="240"/></clipPath><clipPath id="clip-path-3"><path id="SVGID-3" data-name="SVGID" class="cls-2" d="M252.13,1C111.14,3.16-1.58,118.91,0,259.91S116.93,513,257.94,513C258,513,256.53,397,256,256S256,1,256,1"/></clipPath><clipPath id="clip-path-4"><path id="SVGID-4" data-name="SVGID" class="cls-1" d="M256,17s-.5,106.9,0,239.09S258,497,257.82,497C125.62,497,17.51,391.91,16,259.72S120.19,19,252.37,17"/></clipPath></defs><g id="Layer_3" data-name="Layer 3"><g class="cls-3"><polygon class="cls-4" points="0 51.72 143.33 195.05 143.33 195.05 0 195.05 0 51.72"/><polygon class="cls-5" points="0 0 0 51.72 49.12 100.84 49.12 100.84 143.33 195.05 0 195.05 0 316.95 143.33 316.95 49.12 411.16 0 460.28 0 512 51.72 512 100.84 462.88 195.05 368.67 195.05 512 316.95 512 316.95 368.67 411.16 462.88 460.28 512 512 512 512 460.28 462.88 411.16 368.67 316.95 512 316.95 512 195.05 368.67 195.05 462.88 100.84 462.88 100.84 512 51.72 512 0 460.28 0 411.16 49.12 316.95 143.33 316.95 0 195.05 0 195.05 143.33 100.84 49.12 51.72 0 0 0"/><polygon class="cls-6" points="219.43 0 219.43 219.43 0 219.43 0 292.57 219.43 292.57 219.43 512 292.57 512 292.57 292.57 512 292.57 512 219.43 292.57 219.43 292.57 0 219.43 0"/><polygon class="cls-6" points="316.95 316.95 512 512 512 477.52 351.43 316.95 316.95 316.95"/><polygon class="cls-6" points="0 0 0 34.48 160.57 195.05 195.05 195.05 0 0"/><polygon class="cls-6" points="477.52 0 316.95 160.57 316.95 195.05 512 0 477.52 0"/><polygon class="cls-6" points="34.48 512 195.05 351.43 195.05 316.95 0 512 34.48 512"/><polygon class="cls-4" points="51.72 0 195.05 143.33 195.05 143.33 195.05 0 51.72 0"/><polygon class="cls-4" points="512 51.72 368.67 195.05 368.67 195.05 512 195.05 512 51.72"/><polygon class="cls-4" points="460.28 0 316.95 143.33 316.95 143.33 316.95 0 460.28 0"/><polygon class="cls-4" points="0 460.28 143.33 316.95 143.33 316.95 0 316.95 0 460.28"/><polygon class="cls-4" points="51.72 512 195.05 368.67 195.05 368.67 195.05 512 51.72 512"/><polygon class="cls-4" points="512 460.28 368.67 316.95 368.67 316.95 512 316.95 512 460.28"/><polygon class="cls-4" points="460.28 512 316.95 368.67 316.95 368.67 316.95 512 460.28 512"/></g><g class="cls-7"><polygon class="cls-8" points="0 51.72 143.33 195.05 143.33 195.05 0 195.05 0 51.72"/><polygon class="cls-9" points="0 0 0 51.72 49.12 100.84 49.12 100.84 143.33 195.05 0 195.05 0 316.95 143.33 316.95 49.12 411.16 0 460.28 0 512 51.72 512 100.84 462.88 195.05 368.67 195.05 512 316.95 512 316.95 368.67 411.16 462.88 460.28 512 512 512 512 460.28 462.88 411.16 368.67 316.95 512 316.95 512 195.05 368.67 195.05 462.88 100.84 462.88 100.84 512 51.72 512 0 460.28 0 411.16 49.12 316.95 143.33 316.95 0 195.05 0 195.05 143.33 100.84 49.12 51.72 0 0 0"/><polygon class="cls-10" points="219.43 0 219.43 219.43 0 219.43 0 292.57 219.43 292.57 219.43 512 292.57 512 292.57 292.57 512 292.57 512 219.43 292.57 219.43 292.57 0 219.43 0"/><polygon class="cls-10" points="316.95 316.95 512 512 512 477.52 351.43 316.95 316.95 316.95"/><polygon class="cls-10" points="0 0 0 34.48 160.57 195.05 195.05 195.05 0 0"/><polygon class="cls-10" points="477.52 0 316.95 160.57 316.95 195.05 512 0 477.52 0"/><polygon class="cls-10" points="34.48 512 195.05 351.43 195.05 316.95 0 512 34.48 512"/><polygon class="cls-8" points="51.72 0 195.05 143.33 195.05 143.33 195.05 0 51.72 0"/><polygon class="cls-8" points="512 51.72 368.67 195.05 368.67 195.05 512 195.05 512 51.72"/><polygon class="cls-8" points="460.28 0 316.95 143.33 316.95 143.33 316.95 0 460.28 0"/><polygon class="cls-8" points="0 460.28 143.33 316.95 143.33 316.95 0 316.95 0 460.28"/><polygon class="cls-8" points="51.72 512 195.05 368.67 195.05 368.67 195.05 512 51.72 512"/><polygon class="cls-8" points="512 460.28 368.67 316.95 368.67 316.95 512 316.95 512 460.28"/><polygon class="cls-8" points="460.28 512 316.95 368.67 316.95 368.67 316.95 512 460.28 512"/></g><g class="cls-11"><rect class="cls-12" x="-133.12" y="1" width="972.8" height="512"/><rect class="cls-13" x="-133.12" y="1" width="972.8" height="39.38"/><rect class="cls-13" x="-133.12" y="79.77" width="972.8" height="39.38"/><rect class="cls-13" x="-133.12" y="158.54" width="972.8" height="39.38"/><rect class="cls-13" x="-133.12" y="237.31" width="972.8" height="39.38"/><rect class="cls-13" x="-133.12" y="316.08" width="972.8" height="39.38"/><rect class="cls-13" x="-133.12" y="394.85" width="972.8" height="39.38"/><rect class="cls-13" x="-133.12" y="473.62" width="972.8" height="39.38"/><rect class="cls-14" x="-133.12" y="1" width="389.12" height="275.69"/><polygon class="cls-9" points="29.01 12.81 32.55 23.7 44 23.7 34.74 30.43 38.27 41.31 29.01 34.59 19.75 41.31 23.29 30.43 14.03 23.7 25.48 23.7 29.01 12.81"/><polygon class="cls-9" points="93.87 12.81 97.4 23.7 108.85 23.7 99.59 30.43 103.13 41.31 93.87 34.59 84.61 41.31 88.14 30.43 78.88 23.7 90.33 23.7 93.87 12.81"/><polygon class="cls-5" points="158.72 12.81 162.26 23.7 173.7 23.7 164.44 30.43 167.98 41.31 158.72 34.59 149.46 41.31 153 30.43 143.74 23.7 155.18 23.7 158.72 12.81"/><polygon class="cls-5" points="223.57 12.81 227.11 23.7 238.56 23.7 229.3 30.43 232.83 41.31 223.57 34.59 214.31 41.31 217.85 30.43 208.59 23.7 220.04 23.7 223.57 12.81"/><polygon class="cls-9" points="-3.41 40.38 0.12 51.27 11.57 51.27 2.31 58 5.85 68.88 -3.41 62.16 -12.67 68.88 -9.14 58 -18.4 51.27 -6.95 51.27 -3.41 40.38"/><polygon class="cls-9" points="61.44 40.38 64.98 51.27 76.42 51.27 67.16 58 70.7 68.88 61.44 62.16 52.18 68.88 55.72 58 46.46 51.27 57.9 51.27 61.44 40.38"/><polygon class="cls-5" points="126.29 40.38 129.83 51.27 141.28 51.27 132.02 58 135.55 68.88 126.29 62.16 117.03 68.88 120.57 58 111.31 51.27 122.76 51.27 126.29 40.38"/><polygon class="cls-9" points="191.15 40.38 194.68 51.27 206.13 51.27 196.87 58 200.41 68.88 191.15 62.16 181.89 68.88 185.42 58 176.16 51.27 187.61 51.27 191.15 40.38"/><polygon class="cls-9" points="29.01 67.95 32.55 78.84 44 78.84 34.74 85.57 38.27 96.45 29.01 89.73 19.75 96.45 23.29 85.57 14.03 78.84 25.48 78.84 29.01 67.95"/><polygon class="cls-5" points="93.87 67.95 97.4 78.84 108.85 78.84 99.59 85.57 103.13 96.45 93.87 89.73 84.61 96.45 88.14 85.57 78.88 78.84 90.33 78.84 93.87 67.95"/><polygon class="cls-9" points="158.72 67.95 162.26 78.84 173.7 78.84 164.44 85.57 167.98 96.45 158.72 89.73 149.46 96.45 153 85.57 143.74 78.84 155.18 78.84 158.72 67.95"/><polygon class="cls-9" points="223.57 67.95 227.11 78.84 238.56 78.84 229.3 85.57 232.83 96.45 223.57 89.73 214.31 96.45 217.85 85.57 208.59 78.84 220.04 78.84 223.57 67.95"/><polygon class="cls-9" points="-3.41 95.52 0.12 106.41 11.57 106.41 2.31 113.14 5.85 124.02 -3.41 117.3 -12.67 124.02 -9.14 113.14 -18.4 106.41 -6.95 106.41 -3.41 95.52"/><polygon class="cls-5" points="61.44 95.52 64.98 106.41 76.42 106.41 67.16 113.14 70.7 124.02 61.44 117.3 52.18 124.02 55.72 113.14 46.46 106.41 57.9 106.41 61.44 95.52"/><polygon class="cls-9" points="126.29 95.52 129.83 106.41 141.28 106.41 132.02 113.14 135.55 124.02 126.29 117.3 117.03 124.02 120.57 113.14 111.31 106.41 122.76 106.41 126.29 95.52"/><polygon class="cls-9" points="191.15 95.52 194.68 106.41 206.13 106.41 196.87 113.14 200.41 124.02 191.15 117.3 181.89 124.02 185.42 113.14 176.16 106.41 187.61 106.41 191.15 95.52"/><polygon class="cls-5" points="29.01 123.09 32.55 133.98 44 133.98 34.74 140.71 38.27 151.59 29.01 144.86 19.75 151.59 23.29 140.71 14.03 133.98 25.48 133.98 29.01 123.09"/><polygon class="cls-9" points="93.87 123.09 97.4 133.98 108.85 133.98 99.59 140.71 103.13 151.59 93.87 144.86 84.61 151.59 88.14 140.71 78.88 133.98 90.33 133.98 93.87 123.09"/><polygon class="cls-9" points="158.72 123.09 162.26 133.98 173.7 133.98 164.44 140.71 167.98 151.59 158.72 144.86 149.46 151.59 153 140.71 143.74 133.98 155.18 133.98 158.72 123.09"/><polygon class="cls-9" points="223.57 123.09 227.11 133.98 238.56 133.98 229.3 140.71 232.83 151.59 223.57 144.86 214.31 151.59 217.85 140.71 208.59 133.98 220.04 133.98 223.57 123.09"/><polygon class="cls-9" points="-3.41 150.66 0.12 161.55 11.57 161.55 2.31 168.28 5.85 179.16 -3.41 172.43 -12.67 179.16 -9.14 168.28 -18.4 161.55 -6.95 161.55 -3.41 150.66"/><polygon class="cls-9" points="61.44 150.66 64.98 161.55 76.42 161.55 67.16 168.28 70.7 179.16 61.44 172.43 52.18 179.16 55.72 168.28 46.46 161.55 57.9 161.55 61.44 150.66"/><polygon class="cls-9" points="126.29 150.66 129.83 161.55 141.28 161.55 132.02 168.28 135.55 179.16 126.29 172.43 117.03 179.16 120.57 168.28 111.31 161.55 122.76 161.55 126.29 150.66"/><polygon class="cls-9" points="191.15 150.66 194.68 161.55 206.13 161.55 196.87 168.28 200.41 179.16 191.15 172.43 181.89 179.16 185.42 168.28 176.16 161.55 187.61 161.55 191.15 150.66"/><polygon class="cls-5" points="29.01 178.23 32.55 189.12 44 189.12 34.74 195.84 38.27 206.73 29.01 200 19.75 206.73 23.29 195.84 14.03 189.12 25.48 189.12 29.01 178.23"/><polygon class="cls-9" points="93.87 178.23 97.4 189.12 108.85 189.12 99.59 195.84 103.13 206.73 93.87 200 84.61 206.73 88.14 195.84 78.88 189.12 90.33 189.12 93.87 178.23"/><polygon class="cls-9" points="158.72 178.23 162.26 189.12 173.7 189.12 164.44 195.84 167.98 206.73 158.72 200 149.46 206.73 153 195.84 143.74 189.12 155.18 189.12 158.72 178.23"/><polygon class="cls-9" points="223.57 178.23 227.11 189.12 238.56 189.12 229.3 195.84 232.83 206.73 223.57 200 214.31 206.73 217.85 195.84 208.59 189.12 220.04 189.12 223.57 178.23"/><polygon class="cls-5" points="-3.41 205.8 0.12 216.69 11.57 216.69 2.31 223.41 5.85 234.3 -3.41 227.57 -12.67 234.3 -9.14 223.41 -18.4 216.69 -6.95 216.69 -3.41 205.8"/><polygon class="cls-9" points="61.44 205.8 64.98 216.69 76.42 216.69 67.16 223.41 70.7 234.3 61.44 227.57 52.18 234.3 55.72 223.41 46.46 216.69 57.9 216.69 61.44 205.8"/><polygon class="cls-9" points="126.29 205.8 129.83 216.69 141.28 216.69 132.02 223.41 135.55 234.3 126.29 227.57 117.03 234.3 120.57 223.41 111.31 216.69 122.76 216.69 126.29 205.8"/><polygon class="cls-9" points="191.15 205.8 194.68 216.69 206.13 216.69 196.87 223.41 200.41 234.3 191.15 227.57 181.89 234.3 185.42 223.41 176.16 216.69 187.61 216.69 191.15 205.8"/><polygon class="cls-5" points="29.01 233.37 32.55 244.25 44 244.25 34.74 250.98 38.27 261.87 29.01 255.14 19.75 261.87 23.29 250.98 14.03 244.25 25.48 244.25 29.01 233.37"/><polygon class="cls-9" points="93.87 233.37 97.4 244.25 108.85 244.25 99.59 250.98 103.13 261.87 93.87 255.14 84.61 261.87 88.14 250.98 78.88 244.25 90.33 244.25 93.87 233.37"/><polygon class="cls-9" points="158.72 233.37 162.26 244.25 173.7 244.25 164.44 250.98 167.98 261.87 158.72 255.14 149.46 261.87 153 250.98 143.74 244.25 155.18 244.25 158.72 233.37"/><polygon class="cls-9" points="223.57 233.37 227.11 244.25 238.56 244.25 229.3 250.98 232.83 261.87 223.57 255.14 214.31 261.87 217.85 250.98 208.59 244.25 220.04 244.25 223.57 233.37"/></g><g class="cls-15"><rect class="cls-16" x="-133.12" y="1" width="972.8" height="512"/><rect class="cls-17" x="-133.12" y="1" width="972.8" height="39.38"/><rect class="cls-17" x="-133.12" y="79.77" width="972.8" height="39.38"/><rect class="cls-17" x="-133.12" y="158.54" width="972.8" height="39.38"/><rect class="cls-17" x="-133.12" y="237.31" width="972.8" height="39.38"/><rect class="cls-17" x="-133.12" y="316.08" width="972.8" height="39.38"/><rect class="cls-17" x="-133.12" y="394.85" width="972.8" height="39.38"/><rect class="cls-17" x="-133.12" y="473.62" width="972.8" height="39.38"/><rect class="cls-18" x="-133.12" y="1" width="389.12" height="275.69"/><polygon class="cls-9" points="29.01 12.81 32.55 23.7 44 23.7 34.74 30.43 38.27 41.31 29.01 34.59 19.75 41.31 23.29 30.43 14.03 23.7 25.48 23.7 29.01 12.81"/><polygon class="cls-9" points="93.87 12.81 97.4 23.7 108.85 23.7 99.59 30.43 103.13 41.31 93.87 34.59 84.61 41.31 88.14 30.43 78.88 23.7 90.33 23.7 93.87 12.81"/><polygon class="cls-9" points="158.72 12.81 162.26 23.7 173.7 23.7 164.44 30.43 167.98 41.31 158.72 34.59 149.46 41.31 153 30.43 143.74 23.7 155.18 23.7 158.72 12.81"/><polygon class="cls-9" points="223.57 12.81 227.11 23.7 238.56 23.7 229.3 30.43 232.83 41.31 223.57 34.59 214.31 41.31 217.85 30.43 208.59 23.7 220.04 23.7 223.57 12.81"/><polygon class="cls-9" points="-3.41 40.38 0.12 51.27 11.57 51.27 2.31 58 5.85 68.88 -3.41 62.16 -12.67 68.88 -9.14 58 -18.4 51.27 -6.95 51.27 -3.41 40.38"/><polygon class="cls-9" points="61.44 40.38 64.98 51.27 76.42 51.27 67.16 58 70.7 68.88 61.44 62.16 52.18 68.88 55.72 58 46.46 51.27 57.9 51.27 61.44 40.38"/><polygon class="cls-9" points="126.29 40.38 129.83 51.27 141.28 51.27 132.02 58 135.55 68.88 126.29 62.16 117.03 68.88 120.57 58 111.31 51.27 122.76 51.27 126.29 40.38"/><polygon class="cls-9" points="191.15 40.38 194.68 51.27 206.13 51.27 196.87 58 200.41 68.88 191.15 62.16 181.89 68.88 185.42 58 176.16 51.27 187.61 51.27 191.15 40.38"/><polygon class="cls-9" points="29.01 67.95 32.55 78.84 44 78.84 34.74 85.57 38.27 96.45 29.01 89.73 19.75 96.45 23.29 85.57 14.03 78.84 25.48 78.84 29.01 67.95"/><polygon class="cls-9" points="93.87 67.95 97.4 78.84 108.85 78.84 99.59 85.57 103.13 96.45 93.87 89.73 84.61 96.45 88.14 85.57 78.88 78.84 90.33 78.84 93.87 67.95"/><polygon class="cls-9" points="158.72 67.95 162.26 78.84 173.7 78.84 164.44 85.57 167.98 96.45 158.72 89.73 149.46 96.45 153 85.57 143.74 78.84 155.18 78.84 158.72 67.95"/><polygon class="cls-9" points="223.57 67.95 227.11 78.84 238.56 78.84 229.3 85.57 232.83 96.45 223.57 89.73 214.31 96.45 217.85 85.57 208.59 78.84 220.04 78.84 223.57 67.95"/><polygon class="cls-9" points="-3.41 95.52 0.12 106.41 11.57 106.41 2.31 113.14 5.85 124.02 -3.41 117.3 -12.67 124.02 -9.14 113.14 -18.4 106.41 -6.95 106.41 -3.41 95.52"/><polygon class="cls-9" points="61.44 95.52 64.98 106.41 76.42 106.41 67.16 113.14 70.7 124.02 61.44 117.3 52.18 124.02 55.72 113.14 46.46 106.41 57.9 106.41 61.44 95.52"/><polygon class="cls-9" points="126.29 95.52 129.83 106.41 141.28 106.41 132.02 113.14 135.55 124.02 126.29 117.3 117.03 124.02 120.57 113.14 111.31 106.41 122.76 106.41 126.29 95.52"/><polygon class="cls-9" points="191.15 95.52 194.68 106.41 206.13 106.41 196.87 113.14 200.41 124.02 191.15 117.3 181.89 124.02 185.42 113.14 176.16 106.41 187.61 106.41 191.15 95.52"/><polygon class="cls-9" points="29.01 123.09 32.55 133.98 44 133.98 34.74 140.71 38.27 151.59 29.01 144.86 19.75 151.59 23.29 140.71 14.03 133.98 25.48 133.98 29.01 123.09"/><polygon class="cls-9" points="93.87 123.09 97.4 133.98 108.85 133.98 99.59 140.71 103.13 151.59 93.87 144.86 84.61 151.59 88.14 140.71 78.88 133.98 90.33 133.98 93.87 123.09"/><polygon class="cls-9" points="158.72 123.09 162.26 133.98 173.7 133.98 164.44 140.71 167.98 151.59 158.72 144.86 149.46 151.59 153 140.71 143.74 133.98 155.18 133.98 158.72 123.09"/><polygon class="cls-9" points="223.57 123.09 227.11 133.98 238.56 133.98 229.3 140.71 232.83 151.59 223.57 144.86 214.31 151.59 217.85 140.71 208.59 133.98 220.04 133.98 223.57 123.09"/><polygon class="cls-9" points="-3.41 150.66 0.12 161.55 11.57 161.55 2.31 168.28 5.85 179.16 -3.41 172.43 -12.67 179.16 -9.14 168.28 -18.4 161.55 -6.95 161.55 -3.41 150.66"/><polygon class="cls-9" points="61.44 150.66 64.98 161.55 76.42 161.55 67.16 168.28 70.7 179.16 61.44 172.43 52.18 179.16 55.72 168.28 46.46 161.55 57.9 161.55 61.44 150.66"/><polygon class="cls-9" points="126.29 150.66 129.83 161.55 141.28 161.55 132.02 168.28 135.55 179.16 126.29 172.43 117.03 179.16 120.57 168.28 111.31 161.55 122.76 161.55 126.29 150.66"/><polygon class="cls-9" points="191.15 150.66 194.68 161.55 206.13 161.55 196.87 168.28 200.41 179.16 191.15 172.43 181.89 179.16 185.42 168.28 176.16 161.55 187.61 161.55 191.15 150.66"/><polygon class="cls-9" points="29.01 178.23 32.55 189.12 44 189.12 34.74 195.84 38.27 206.73 29.01 200 19.75 206.73 23.29 195.84 14.03 189.12 25.48 189.12 29.01 178.23"/><polygon class="cls-9" points="93.87 178.23 97.4 189.12 108.85 189.12 99.59 195.84 103.13 206.73 93.87 200 84.61 206.73 88.14 195.84 78.88 189.12 90.33 189.12 93.87 178.23"/><polygon class="cls-9" points="158.72 178.23 162.26 189.12 173.7 189.12 164.44 195.84 167.98 206.73 158.72 200 149.46 206.73 153 195.84 143.74 189.12 155.18 189.12 158.72 178.23"/><polygon class="cls-9" points="223.57 178.23 227.11 189.12 238.56 189.12 229.3 195.84 232.83 206.73 223.57 200 214.31 206.73 217.85 195.84 208.59 189.12 220.04 189.12 223.57 178.23"/><polygon class="cls-9" points="-3.41 205.8 0.12 216.69 11.57 216.69 2.31 223.41 5.85 234.3 -3.41 227.57 -12.67 234.3 -9.14 223.41 -18.4 216.69 -6.95 216.69 -3.41 205.8"/><polygon class="cls-9" points="61.44 205.8 64.98 216.69 76.42 216.69 67.16 223.41 70.7 234.3 61.44 227.57 52.18 234.3 55.72 223.41 46.46 216.69 57.9 216.69 61.44 205.8"/><polygon class="cls-9" points="126.29 205.8 129.83 216.69 141.28 216.69 132.02 223.41 135.55 234.3 126.29 227.57 117.03 234.3 120.57 223.41 111.31 216.69 122.76 216.69 126.29 205.8"/><polygon class="cls-9" points="191.15 205.8 194.68 216.69 206.13 216.69 196.87 223.41 200.41 234.3 191.15 227.57 181.89 234.3 185.42 223.41 176.16 216.69 187.61 216.69 191.15 205.8"/><polygon class="cls-9" points="29.01 233.37 32.55 244.25 44 244.25 34.74 250.98 38.27 261.87 29.01 255.14 19.75 261.87 23.29 250.98 14.03 244.25 25.48 244.25 29.01 233.37"/><polygon class="cls-9" points="93.87 233.37 97.4 244.25 108.85 244.25 99.59 250.98 103.13 261.87 93.87 255.14 84.61 261.87 88.14 250.98 78.88 244.25 90.33 244.25 93.87 233.37"/><polygon class="cls-9" points="158.72 233.37 162.26 244.25 173.7 244.25 164.44 250.98 167.98 261.87 158.72 255.14 149.46 261.87 153 250.98 143.74 244.25 155.18 244.25 158.72 233.37"/><polygon class="cls-9" points="223.57 233.37 227.11 244.25 238.56 244.25 229.3 250.98 232.83 261.87 223.57 255.14 214.31 261.87 217.85 250.98 208.59 244.25 220.04 244.25 223.57 233.37"/></g></g></svg>