<svg xmlns="http://www.w3.org/2000/svg" xmlns:xlink="http://www.w3.org/1999/xlink" viewBox="0 0 512 512"><defs><style>.cls-1,.cls-2{fill:none;}.cls-2{clip-rule:evenodd;}.cls-3{clip-path:url(#clip-path);}.cls-11,.cls-4{fill:#ebebeb;}.cls-5{fill:#ab001c;}.cls-6{clip-path:url(#clip-path-2);}.cls-15,.cls-7{fill:#fff;}.cls-8{fill:#bf0a30;}.cls-9{clip-path:url(#clip-path-3);}.cls-10{fill:#000d55;}.cls-10,.cls-11,.cls-12,.cls-14,.cls-15,.cls-16{fill-rule:evenodd;}.cls-12{fill:#b4001a;}.cls-13{clip-path:url(#clip-path-4);}.cls-14{fill:#012169;}.cls-16{fill:#c8102e;}.cls-17{clip-path:url(#clip-path-5);}.cls-18{fill:#001454;}.cls-19{clip-path:url(#clip-path-6);}.cls-20{fill:#002868;}</style><clipPath id="clip-path"><path id="SVGID" class="cls-1" d="M-276,0C-135,0-20.54,114-20,255s-113.06,255.9-254.06,257S-530.38,399.9-532,258.91-420.86,2.16-279.87,0"/></clipPath><clipPath id="clip-path-2"><path id="SVGID-2" data-name="SVGID" class="cls-2" d="M-276,16C-143.8,16-36.5,122.9-36,255.09S-142,495-274.18,496-514.49,390.91-516,258.72-411.81,18-279.63,16"/></clipPath><clipPath id="clip-path-3"><path id="SVGID-3" data-name="SVGID" class="cls-2" d="M512,256c0,141.38-114.62,256-256,256A256,256,0,1,1,256,0C397.38,0,512,114.62,512,256Z"/></clipPath><clipPath id="clip-path-4"><circle id="SVGID-4" data-name="SVGID" class="cls-1" cx="256" cy="256" r="240"/></clipPath><clipPath id="clip-path-5"><path id="SVGID-5" data-name="SVGID" class="cls-1" d="M784.13,1C643.14,3.16,530.42,118.91,532,259.91S648.93,513,789.94,513C790,513,788.53,397,788,256S788,1,788,1"/></clipPath><clipPath id="clip-path-6"><path id="SVGID-6" data-name="SVGID" class="cls-2" d="M788,17s-.5,106.9,0,239.09S790,497,789.82,497C657.62,497,549.51,391.91,548,259.72S652.19,19,784.37,17"/></clipPath></defs><g id="Layer_1" data-name="Layer 1"><g class="cls-3"><rect class="cls-4" x="-665.12" width="972.8" height="512"/><rect class="cls-5" x="-665.12" width="972.8" height="39.38"/><rect class="cls-5" x="-665.12" y="78.77" width="972.8" height="39.38"/><rect class="cls-5" x="-665.12" y="157.54" width="972.8" height="39.38"/><rect class="cls-5" x="-665.12" y="236.31" width="972.8" height="39.38"/><rect class="cls-5" x="-665.12" y="315.08" width="972.8" height="39.38"/><rect class="cls-5" x="-665.12" y="393.85" width="972.8" height="39.38"/><rect class="cls-5" x="-665.12" y="472.62" width="972.8" height="39.38"/></g><g class="cls-6"><rect class="cls-7" x="-665.12" width="972.8" height="512"/><rect class="cls-8" x="-665.12" width="972.8" height="39.38"/><rect class="cls-8" x="-665.12" y="78.77" width="972.8" height="39.38"/><rect class="cls-8" x="-665.12" y="157.54" width="972.8" height="39.38"/><rect class="cls-8" x="-665.12" y="236.31" width="972.8" height="39.38"/><rect class="cls-8" x="-665.12" y="315.08" width="972.8" height="39.38"/><rect class="cls-8" x="-665.12" y="393.85" width="972.8" height="39.38"/><rect class="cls-8" x="-665.12" y="472.62" width="972.8" height="39.38"/></g></g><g id="Layer_2" data-name="Layer 2"><g class="cls-9"><polygon class="cls-10" points="0 51.72 143.33 195.05 143.33 195.05 0 195.05 0 51.72"/><polygon class="cls-11" points="0 0 0 51.72 49.12 100.84 49.12 100.84 143.33 195.05 0 195.05 0 316.95 143.33 316.95 49.12 411.16 0 460.28 0 512 51.72 512 100.84 462.88 195.05 368.67 195.05 512 316.95 512 316.95 368.67 411.16 462.88 460.28 512 512 512 512 460.28 462.88 411.16 368.67 316.95 512 316.95 512 195.05 368.67 195.05 462.88 100.84 462.88 100.84 512 51.72 512 0 460.28 0 411.16 49.12 316.95 143.33 316.95 0 195.05 0 195.05 143.33 100.84 49.12 51.72 0 0 0"/><polygon class="cls-12" points="219.43 0 219.43 219.43 0 219.43 0 292.57 219.43 292.57 219.43 512 292.57 512 292.57 292.57 512 292.57 512 219.43 292.57 219.43 292.57 0 219.43 0"/><polygon class="cls-12" points="316.95 316.95 512 512 512 477.52 351.43 316.95 316.95 316.95"/><polygon class="cls-12" points="0 0 0 34.48 160.57 195.05 195.05 195.05 0 0"/><polygon class="cls-12" points="477.52 0 316.95 160.57 316.95 195.05 512 0 477.52 0"/><polygon class="cls-12" points="34.48 512 195.05 351.43 195.05 316.95 0 512 34.48 512"/><polygon class="cls-10" points="51.72 0 195.05 143.33 195.05 143.33 195.05 0 51.72 0"/><polygon class="cls-10" points="512 51.72 368.67 195.05 368.67 195.05 512 195.05 512 51.72"/><polygon class="cls-10" points="460.28 0 316.95 143.33 316.95 143.33 316.95 0 460.28 0"/><polygon class="cls-10" points="0 460.28 143.33 316.95 143.33 316.95 0 316.95 0 460.28"/><polygon class="cls-10" points="51.72 512 195.05 368.67 195.05 368.67 195.05 512 51.72 512"/><polygon class="cls-10" points="512 460.28 368.67 316.95 368.67 316.95 512 316.95 512 460.28"/><polygon class="cls-10" points="460.28 512 316.95 368.67 316.95 368.67 316.95 512 460.28 512"/></g><g class="cls-13"><polygon class="cls-14" points="0 51.72 143.33 195.05 143.33 195.05 0 195.05 0 51.72"/><polygon class="cls-15" points="0 0 0 51.72 49.12 100.84 49.12 100.84 143.33 195.05 0 195.05 0 316.95 143.33 316.95 49.12 411.16 0 460.28 0 512 51.72 512 100.84 462.88 195.05 368.67 195.05 512 316.95 512 316.95 368.67 411.16 462.88 460.28 512 512 512 512 460.28 462.88 411.16 368.67 316.95 512 316.95 512 195.05 368.67 195.05 462.88 100.84 462.88 100.84 512 51.72 512 0 460.28 0 411.16 49.12 316.95 143.33 316.95 0 195.05 0 195.05 143.33 100.84 49.12 51.72 0 0 0"/><polygon class="cls-16" points="219.43 0 219.43 219.43 0 219.43 0 292.57 219.43 292.57 219.43 512 292.57 512 292.57 292.57 512 292.57 512 219.43 292.57 219.43 292.57 0 219.43 0"/><polygon class="cls-16" points="316.95 316.95 512 512 512 477.52 351.43 316.95 316.95 316.95"/><polygon class="cls-16" points="0 0 0 34.48 160.57 195.05 195.05 195.05 0 0"/><polygon class="cls-16" points="477.52 0 316.95 160.57 316.95 195.05 512 0 477.52 0"/><polygon class="cls-16" points="34.48 512 195.05 351.43 195.05 316.95 0 512 34.48 512"/><polygon class="cls-14" points="51.72 0 195.05 143.33 195.05 143.33 195.05 0 51.72 0"/><polygon class="cls-14" points="512 51.72 368.67 195.05 368.67 195.05 512 195.05 512 51.72"/><polygon class="cls-14" points="460.28 0 316.95 143.33 316.95 143.33 316.95 0 460.28 0"/><polygon class="cls-14" points="0 460.28 143.33 316.95 143.33 316.95 0 316.95 0 460.28"/><polygon class="cls-14" points="51.72 512 195.05 368.67 195.05 368.67 195.05 512 51.72 512"/><polygon class="cls-14" points="512 460.28 368.67 316.95 368.67 316.95 512 316.95 512 460.28"/><polygon class="cls-14" points="460.28 512 316.95 368.67 316.95 368.67 316.95 512 460.28 512"/></g></g><g id="Layer_3" data-name="Layer 3"><g class="cls-17"><rect class="cls-4" x="398.88" y="1" width="972.8" height="512"/><rect class="cls-5" x="398.88" y="1" width="972.8" height="39.38"/><rect class="cls-5" x="398.88" y="79.77" width="972.8" height="39.38"/><rect class="cls-5" x="398.88" y="158.54" width="972.8" height="39.38"/><rect class="cls-5" x="398.88" y="237.31" width="972.8" height="39.38"/><rect class="cls-5" x="398.88" y="316.08" width="972.8" height="39.38"/><rect class="cls-5" x="398.88" y="394.85" width="972.8" height="39.38"/><rect class="cls-5" x="398.88" y="473.62" width="972.8" height="39.38"/><rect class="cls-18" x="398.88" y="1" width="389.12" height="275.69"/><polygon class="cls-15" points="431.31 12.81 434.84 23.7 446.29 23.7 437.03 30.43 440.57 41.31 431.31 34.59 422.05 41.31 425.58 30.43 416.32 23.7 427.77 23.7 431.31 12.81"/><polygon class="cls-15" points="496.16 12.81 499.7 23.7 511.14 23.7 501.88 30.43 505.42 41.31 496.16 34.59 486.9 41.31 490.44 30.43 481.18 23.7 492.62 23.7 496.16 12.81"/><polygon class="cls-15" points="463.73 40.38 467.27 51.27 478.72 51.27 469.46 58 472.99 68.88 463.73 62.16 454.47 68.88 458.01 58 448.75 51.27 460.2 51.27 463.73 40.38"/><polygon class="cls-15" points="431.31 67.95 434.84 78.84 446.29 78.84 437.03 85.57 440.57 96.45 431.31 89.73 422.05 96.45 425.58 85.57 416.32 78.84 427.77 78.84 431.31 67.95"/><polygon class="cls-15" points="496.16 67.95 499.7 78.84 511.14 78.84 501.88 85.57 505.42 96.45 496.16 89.73 486.9 96.45 490.44 85.57 481.18 78.84 492.62 78.84 496.16 67.95"/><polygon class="cls-15" points="463.73 95.52 467.27 106.41 478.72 106.41 469.46 113.14 472.99 124.02 463.73 117.3 454.47 124.02 458.01 113.14 448.75 106.41 460.2 106.41 463.73 95.52"/><polygon class="cls-15" points="431.31 123.09 434.84 133.98 446.29 133.98 437.03 140.71 440.57 151.59 431.31 144.86 422.05 151.59 425.58 140.71 416.32 133.98 427.77 133.98 431.31 123.09"/><polygon class="cls-15" points="496.16 123.09 499.7 133.98 511.14 133.98 501.88 140.71 505.42 151.59 496.16 144.86 486.9 151.59 490.44 140.71 481.18 133.98 492.62 133.98 496.16 123.09"/><polygon class="cls-15" points="463.73 150.66 467.27 161.55 478.72 161.55 469.46 168.28 472.99 179.16 463.73 172.43 454.47 179.16 458.01 168.28 448.75 161.55 460.2 161.55 463.73 150.66"/><polygon class="cls-15" points="431.31 178.23 434.84 189.12 446.29 189.12 437.03 195.84 440.57 206.73 431.31 200 422.05 206.73 425.58 195.84 416.32 189.12 427.77 189.12 431.31 178.23"/><polygon class="cls-15" points="496.16 178.23 499.7 189.12 511.14 189.12 501.88 195.84 505.42 206.73 496.16 200 486.9 206.73 490.44 195.84 481.18 189.12 492.62 189.12 496.16 178.23"/><polygon class="cls-15" points="463.73 205.8 467.27 216.69 478.72 216.69 469.46 223.41 472.99 234.3 463.73 227.57 454.47 234.3 458.01 223.41 448.75 216.69 460.2 216.69 463.73 205.8"/><polygon class="cls-15" points="431.31 233.37 434.84 244.25 446.29 244.25 437.03 250.98 440.57 261.87 431.31 255.14 422.05 261.87 425.58 250.98 416.32 244.25 427.77 244.25 431.31 233.37"/><polygon class="cls-15" points="496.16 233.37 499.7 244.25 511.14 244.25 501.88 250.98 505.42 261.87 496.16 255.14 486.9 261.87 490.44 250.98 481.18 244.25 492.62 244.25 496.16 233.37"/></g><g class="cls-19"><rect class="cls-7" x="398.88" y="1" width="972.8" height="512"/><rect class="cls-8" x="398.88" y="1" width="972.8" height="39.38"/><rect class="cls-8" x="398.88" y="79.77" width="972.8" height="39.38"/><rect class="cls-8" x="398.88" y="158.54" width="972.8" height="39.38"/><rect class="cls-8" x="398.88" y="237.31" width="972.8" height="39.38"/><rect class="cls-8" x="398.88" y="316.08" width="972.8" height="39.38"/><rect class="cls-8" x="398.88" y="394.85" width="972.8" height="39.38"/><rect class="cls-8" x="398.88" y="473.62" width="972.8" height="39.38"/><rect class="cls-20" x="398.88" y="1" width="389.12" height="275.69"/><polygon class="cls-15" points="431.31 12.81 434.84 23.7 446.29 23.7 437.03 30.43 440.57 41.31 431.31 34.59 422.05 41.31 425.58 30.43 416.32 23.7 427.77 23.7 431.31 12.81"/><polygon class="cls-15" points="496.16 12.81 499.7 23.7 511.14 23.7 501.88 30.43 505.42 41.31 496.16 34.59 486.9 41.31 490.44 30.43 481.18 23.7 492.62 23.7 496.16 12.81"/><polygon class="cls-15" points="463.73 40.38 467.27 51.27 478.72 51.27 469.46 58 472.99 68.88 463.73 62.16 454.47 68.88 458.01 58 448.75 51.27 460.2 51.27 463.73 40.38"/><polygon class="cls-15" points="431.31 67.95 434.84 78.84 446.29 78.84 437.03 85.57 440.57 96.45 431.31 89.73 422.05 96.45 425.58 85.57 416.32 78.84 427.77 78.84 431.31 67.95"/><polygon class="cls-15" points="496.16 67.95 499.7 78.84 511.14 78.84 501.88 85.57 505.42 96.45 496.16 89.73 486.9 96.45 490.44 85.57 481.18 78.84 492.62 78.84 496.16 67.95"/><polygon class="cls-15" points="463.73 95.52 467.27 106.41 478.72 106.41 469.46 113.14 472.99 124.02 463.73 117.3 454.47 124.02 458.01 113.14 448.75 106.41 460.2 106.41 463.73 95.52"/><polygon class="cls-15" points="431.31 123.09 434.84 133.98 446.29 133.98 437.03 140.71 440.57 151.59 431.31 144.86 422.05 151.59 425.58 140.71 416.32 133.98 427.77 133.98 431.31 123.09"/><polygon class="cls-15" points="496.16 123.09 499.7 133.98 511.14 133.98 501.88 140.71 505.42 151.59 496.16 144.86 486.9 151.59 490.44 140.71 481.18 133.98 492.62 133.98 496.16 123.09"/><polygon class="cls-15" points="463.73 150.66 467.27 161.55 478.72 161.55 469.46 168.28 472.99 179.16 463.73 172.43 454.47 179.16 458.01 168.28 448.75 161.55 460.2 161.55 463.73 150.66"/><polygon class="cls-15" points="431.31 178.23 434.84 189.12 446.29 189.12 437.03 195.84 440.57 206.73 431.31 200 422.05 206.73 425.58 195.84 416.32 189.12 427.77 189.12 431.31 178.23"/><polygon class="cls-15" points="496.16 178.23 499.7 189.12 511.14 189.12 501.88 195.84 505.42 206.73 496.16 200 486.9 206.73 490.44 195.84 481.18 189.12 492.62 189.12 496.16 178.23"/><polygon class="cls-15" points="463.73 205.8 467.27 216.69 478.72 216.69 469.46 223.41 472.99 234.3 463.73 227.57 454.47 234.3 458.01 223.41 448.75 216.69 460.2 216.69 463.73 205.8"/><polygon class="cls-15" points="431.31 233.37 434.84 244.25 446.29 244.25 437.03 250.98 440.57 261.87 431.31 255.14 422.05 261.87 425.58 250.98 416.32 244.25 427.77 244.25 431.31 233.37"/><polygon class="cls-15" points="496.16 233.37 499.7 244.25 511.14 244.25 501.88 250.98 505.42 261.87 496.16 255.14 486.9 261.87 490.44 250.98 481.18 244.25 492.62 244.25 496.16 233.37"/></g></g></svg>