<svg id="Layer_1" data-name="Layer 1" xmlns="http://www.w3.org/2000/svg" xmlns:xlink="http://www.w3.org/1999/xlink" viewBox="0 0 512 512"><defs><style>.cls-1,.cls-2{fill:none;}.cls-2{clip-rule:evenodd;}.cls-3{clip-path:url(#clip-path);}.cls-4,.cls-8{fill:#ebebeb;}.cls-5{fill:#ab001c;}.cls-6{fill:#001454;}.cls-10,.cls-7{fill:#fff;}.cls-7,.cls-8{fill-rule:evenodd;}.cls-9{clip-path:url(#clip-path-2);}.cls-11{fill:#bf0a30;}.cls-12{fill:#002868;}</style><clipPath id="clip-path"><path id="SVGID" class="cls-1" d="M256,0C397,0,511.46,114,512,255S398.94,510.93,257.94,512,1.62,399.9,0,258.91,111.14,2.16,252.13,0"/></clipPath><clipPath id="clip-path-2"><path id="SVGID-2" data-name="SVGID" class="cls-2" d="M256,16c132.2,0,239.5,106.9,240,239.09S390,495,257.82,496,17.51,390.91,16,258.72,120.19,18,252.37,16"/></clipPath></defs><g class="cls-3"><rect class="cls-4" x="-133.12" width="972.8" height="512"/><rect class="cls-5" x="-133.12" width="972.8" height="39.38"/><rect class="cls-5" x="-133.12" y="78.77" width="972.8" height="39.38"/><rect class="cls-5" x="-133.12" y="157.54" width="972.8" height="39.38"/><rect class="cls-5" x="-133.12" y="236.31" width="972.8" height="39.38"/><rect class="cls-5" x="-133.12" y="315.08" width="972.8" height="39.38"/><rect class="cls-5" x="-133.12" y="393.85" width="972.8" height="39.38"/><rect class="cls-5" x="-133.12" y="472.62" width="972.8" height="39.38"/><rect class="cls-6" x="-133.12" width="389.12" height="275.69"/><polygon class="cls-7" points="29.01 11.81 32.55 22.7 44 22.7 34.74 29.43 38.27 40.31 29.01 33.59 19.75 40.31 23.29 29.43 14.03 22.7 25.48 22.7 29.01 11.81"/><polygon class="cls-7" points="93.87 11.81 97.4 22.7 108.85 22.7 99.59 29.43 103.13 40.31 93.87 33.59 84.61 40.31 88.14 29.43 78.88 22.7 90.33 22.7 93.87 11.81"/><polygon class="cls-8" points="158.72 11.81 162.26 22.7 173.7 22.7 164.44 29.43 167.98 40.31 158.72 33.59 149.46 40.31 153 29.43 143.74 22.7 155.18 22.7 158.72 11.81"/><polygon class="cls-8" points="223.57 11.81 227.11 22.7 238.56 22.7 229.3 29.43 232.83 40.31 223.57 33.59 214.31 40.31 217.85 29.43 208.59 22.7 220.04 22.7 223.57 11.81"/><polygon class="cls-7" points="-3.41 39.38 0.12 50.27 11.57 50.27 2.31 57 5.85 67.88 -3.41 61.16 -12.67 67.88 -9.14 57 -18.4 50.27 -6.95 50.27 -3.41 39.38"/><polygon class="cls-7" points="61.44 39.38 64.98 50.27 76.42 50.27 67.16 57 70.7 67.88 61.44 61.16 52.18 67.88 55.72 57 46.46 50.27 57.9 50.27 61.44 39.38"/><polygon class="cls-8" points="126.29 39.38 129.83 50.27 141.28 50.27 132.02 57 135.55 67.88 126.29 61.16 117.03 67.88 120.57 57 111.31 50.27 122.76 50.27 126.29 39.38"/><polygon class="cls-7" points="191.15 39.38 194.68 50.27 206.13 50.27 196.87 57 200.41 67.88 191.15 61.16 181.89 67.88 185.42 57 176.16 50.27 187.61 50.27 191.15 39.38"/><polygon class="cls-7" points="29.01 66.95 32.55 77.84 44 77.84 34.74 84.57 38.27 95.45 29.01 88.73 19.75 95.45 23.29 84.57 14.03 77.84 25.48 77.84 29.01 66.95"/><polygon class="cls-8" points="93.87 66.95 97.4 77.84 108.85 77.84 99.59 84.57 103.13 95.45 93.87 88.73 84.61 95.45 88.14 84.57 78.88 77.84 90.33 77.84 93.87 66.95"/><polygon class="cls-7" points="158.72 66.95 162.26 77.84 173.7 77.84 164.44 84.57 167.98 95.45 158.72 88.73 149.46 95.45 153 84.57 143.74 77.84 155.18 77.84 158.72 66.95"/><polygon class="cls-7" points="223.57 66.95 227.11 77.84 238.56 77.84 229.3 84.57 232.83 95.45 223.57 88.73 214.31 95.45 217.85 84.57 208.59 77.84 220.04 77.84 223.57 66.95"/><polygon class="cls-7" points="-3.41 94.52 0.12 105.41 11.57 105.41 2.31 112.14 5.85 123.02 -3.41 116.3 -12.67 123.02 -9.14 112.14 -18.4 105.41 -6.95 105.41 -3.41 94.52"/><polygon class="cls-8" points="61.44 94.52 64.98 105.41 76.42 105.41 67.16 112.14 70.7 123.02 61.44 116.3 52.18 123.02 55.72 112.14 46.46 105.41 57.9 105.41 61.44 94.52"/><polygon class="cls-7" points="126.29 94.52 129.83 105.41 141.28 105.41 132.02 112.14 135.55 123.02 126.29 116.3 117.03 123.02 120.57 112.14 111.31 105.41 122.76 105.41 126.29 94.52"/><polygon class="cls-7" points="191.15 94.52 194.68 105.41 206.13 105.41 196.87 112.14 200.41 123.02 191.15 116.3 181.89 123.02 185.42 112.14 176.16 105.41 187.61 105.41 191.15 94.52"/><polygon class="cls-8" points="29.01 122.09 32.55 132.98 44 132.98 34.74 139.71 38.27 150.59 29.01 143.86 19.75 150.59 23.29 139.71 14.03 132.98 25.48 132.98 29.01 122.09"/><polygon class="cls-7" points="93.87 122.09 97.4 132.98 108.85 132.98 99.59 139.71 103.13 150.59 93.87 143.86 84.61 150.59 88.14 139.71 78.88 132.98 90.33 132.98 93.87 122.09"/><polygon class="cls-7" points="158.72 122.09 162.26 132.98 173.7 132.98 164.44 139.71 167.98 150.59 158.72 143.86 149.46 150.59 153 139.71 143.74 132.98 155.18 132.98 158.72 122.09"/><polygon class="cls-7" points="223.57 122.09 227.11 132.98 238.56 132.98 229.3 139.71 232.83 150.59 223.57 143.86 214.31 150.59 217.85 139.71 208.59 132.98 220.04 132.98 223.57 122.09"/><polygon class="cls-7" points="-3.41 149.66 0.12 160.55 11.57 160.55 2.31 167.28 5.85 178.16 -3.41 171.43 -12.67 178.16 -9.14 167.28 -18.4 160.55 -6.95 160.55 -3.41 149.66"/><polygon class="cls-7" points="61.44 149.66 64.98 160.55 76.42 160.55 67.16 167.28 70.7 178.16 61.44 171.43 52.18 178.16 55.72 167.28 46.46 160.55 57.9 160.55 61.44 149.66"/><polygon class="cls-7" points="126.29 149.66 129.83 160.55 141.28 160.55 132.02 167.28 135.55 178.16 126.29 171.43 117.03 178.16 120.57 167.28 111.31 160.55 122.76 160.55 126.29 149.66"/><polygon class="cls-7" points="191.15 149.66 194.68 160.55 206.13 160.55 196.87 167.28 200.41 178.16 191.15 171.43 181.89 178.16 185.42 167.28 176.16 160.55 187.61 160.55 191.15 149.66"/><polygon class="cls-8" points="29.01 177.23 32.55 188.12 44 188.12 34.74 194.84 38.27 205.73 29.01 199 19.75 205.73 23.29 194.84 14.03 188.12 25.48 188.12 29.01 177.23"/><polygon class="cls-7" points="93.87 177.23 97.4 188.12 108.85 188.12 99.59 194.84 103.13 205.73 93.87 199 84.61 205.73 88.14 194.84 78.88 188.12 90.33 188.12 93.87 177.23"/><polygon class="cls-7" points="158.72 177.23 162.26 188.12 173.7 188.12 164.44 194.84 167.98 205.73 158.72 199 149.46 205.73 153 194.84 143.74 188.12 155.18 188.12 158.72 177.23"/><polygon class="cls-7" points="223.57 177.23 227.11 188.12 238.56 188.12 229.3 194.84 232.83 205.73 223.57 199 214.31 205.73 217.85 194.84 208.59 188.12 220.04 188.12 223.57 177.23"/><polygon class="cls-8" points="-3.41 204.8 0.12 215.69 11.57 215.69 2.31 222.41 5.85 233.3 -3.41 226.57 -12.67 233.3 -9.14 222.41 -18.4 215.69 -6.95 215.69 -3.41 204.8"/><polygon class="cls-7" points="61.44 204.8 64.98 215.69 76.42 215.69 67.16 222.41 70.7 233.3 61.44 226.57 52.18 233.3 55.72 222.41 46.46 215.69 57.9 215.69 61.44 204.8"/><polygon class="cls-7" points="126.29 204.8 129.83 215.69 141.28 215.69 132.02 222.41 135.55 233.3 126.29 226.57 117.03 233.3 120.57 222.41 111.31 215.69 122.76 215.69 126.29 204.8"/><polygon class="cls-7" points="191.15 204.8 194.68 215.69 206.13 215.69 196.87 222.41 200.41 233.3 191.15 226.57 181.89 233.3 185.42 222.41 176.16 215.69 187.61 215.69 191.15 204.8"/><polygon class="cls-8" points="29.01 232.37 32.55 243.25 44 243.25 34.74 249.98 38.27 260.87 29.01 254.14 19.75 260.87 23.29 249.98 14.03 243.25 25.48 243.25 29.01 232.37"/><polygon class="cls-7" points="93.87 232.37 97.4 243.25 108.85 243.25 99.59 249.98 103.13 260.87 93.87 254.14 84.61 260.87 88.14 249.98 78.88 243.25 90.33 243.25 93.87 232.37"/><polygon class="cls-7" points="158.72 232.37 162.26 243.25 173.7 243.25 164.44 249.98 167.98 260.87 158.72 254.14 149.46 260.87 153 249.98 143.74 243.25 155.18 243.25 158.72 232.37"/><polygon class="cls-7" points="223.57 232.37 227.11 243.25 238.56 243.25 229.3 249.98 232.83 260.87 223.57 254.14 214.31 260.87 217.85 249.98 208.59 243.25 220.04 243.25 223.57 232.37"/></g><g class="cls-9"><rect class="cls-10" x="-133.12" width="972.8" height="512"/><rect class="cls-11" x="-133.12" width="972.8" height="39.38"/><rect class="cls-11" x="-133.12" y="78.77" width="972.8" height="39.38"/><rect class="cls-11" x="-133.12" y="157.54" width="972.8" height="39.38"/><rect class="cls-11" x="-133.12" y="236.31" width="972.8" height="39.38"/><rect class="cls-11" x="-133.12" y="315.08" width="972.8" height="39.38"/><rect class="cls-11" x="-133.12" y="393.85" width="972.8" height="39.38"/><rect class="cls-11" x="-133.12" y="472.62" width="972.8" height="39.38"/><rect class="cls-12" x="-133.12" width="389.12" height="275.69"/><polygon class="cls-7" points="29.01 11.81 32.55 22.7 44 22.7 34.74 29.43 38.27 40.31 29.01 33.59 19.75 40.31 23.29 29.43 14.03 22.7 25.48 22.7 29.01 11.81"/><polygon class="cls-7" points="93.87 11.81 97.4 22.7 108.85 22.7 99.59 29.43 103.13 40.31 93.87 33.59 84.61 40.31 88.14 29.43 78.88 22.7 90.33 22.7 93.87 11.81"/><polygon class="cls-7" points="158.72 11.81 162.26 22.7 173.7 22.7 164.44 29.43 167.98 40.31 158.72 33.59 149.46 40.31 153 29.43 143.74 22.7 155.18 22.7 158.72 11.81"/><polygon class="cls-7" points="223.57 11.81 227.11 22.7 238.56 22.7 229.3 29.43 232.83 40.31 223.57 33.59 214.31 40.31 217.85 29.43 208.59 22.7 220.04 22.7 223.57 11.81"/><polygon class="cls-7" points="-3.41 39.38 0.12 50.27 11.57 50.27 2.31 57 5.85 67.88 -3.41 61.16 -12.67 67.88 -9.14 57 -18.4 50.27 -6.95 50.27 -3.41 39.38"/><polygon class="cls-7" points="61.44 39.38 64.98 50.27 76.42 50.27 67.16 57 70.7 67.88 61.44 61.16 52.18 67.88 55.72 57 46.46 50.27 57.9 50.27 61.44 39.38"/><polygon class="cls-7" points="126.29 39.38 129.83 50.27 141.28 50.27 132.02 57 135.55 67.88 126.29 61.16 117.03 67.88 120.57 57 111.31 50.27 122.76 50.27 126.29 39.38"/><polygon class="cls-7" points="191.15 39.38 194.68 50.27 206.13 50.27 196.87 57 200.41 67.88 191.15 61.16 181.89 67.88 185.42 57 176.16 50.27 187.61 50.27 191.15 39.38"/><polygon class="cls-7" points="29.01 66.95 32.55 77.84 44 77.84 34.74 84.57 38.27 95.45 29.01 88.73 19.75 95.45 23.29 84.57 14.03 77.84 25.48 77.84 29.01 66.95"/><polygon class="cls-7" points="93.87 66.95 97.4 77.84 108.85 77.84 99.59 84.57 103.13 95.45 93.87 88.73 84.61 95.45 88.14 84.57 78.88 77.84 90.33 77.84 93.87 66.95"/><polygon class="cls-7" points="158.72 66.95 162.26 77.84 173.7 77.84 164.44 84.57 167.98 95.45 158.72 88.73 149.46 95.45 153 84.57 143.74 77.84 155.18 77.84 158.72 66.95"/><polygon class="cls-7" points="223.57 66.95 227.11 77.84 238.56 77.84 229.3 84.57 232.83 95.45 223.57 88.73 214.31 95.45 217.85 84.57 208.59 77.84 220.04 77.84 223.57 66.95"/><polygon class="cls-7" points="-3.41 94.52 0.12 105.41 11.57 105.41 2.31 112.14 5.85 123.02 -3.41 116.3 -12.67 123.02 -9.14 112.14 -18.4 105.41 -6.95 105.41 -3.41 94.52"/><polygon class="cls-7" points="61.44 94.52 64.98 105.41 76.42 105.41 67.16 112.14 70.7 123.02 61.44 116.3 52.18 123.02 55.72 112.14 46.46 105.41 57.9 105.41 61.44 94.52"/><polygon class="cls-7" points="126.29 94.52 129.83 105.41 141.28 105.41 132.02 112.14 135.55 123.02 126.29 116.3 117.03 123.02 120.57 112.14 111.31 105.41 122.76 105.41 126.29 94.52"/><polygon class="cls-7" points="191.15 94.52 194.68 105.41 206.13 105.41 196.87 112.14 200.41 123.02 191.15 116.3 181.89 123.02 185.42 112.14 176.16 105.41 187.61 105.41 191.15 94.52"/><polygon class="cls-7" points="29.01 122.09 32.55 132.98 44 132.98 34.74 139.71 38.27 150.59 29.01 143.86 19.75 150.59 23.29 139.71 14.03 132.98 25.48 132.98 29.01 122.09"/><polygon class="cls-7" points="93.87 122.09 97.4 132.98 108.85 132.98 99.59 139.71 103.13 150.59 93.87 143.86 84.61 150.59 88.14 139.71 78.88 132.98 90.33 132.98 93.87 122.09"/><polygon class="cls-7" points="158.72 122.09 162.26 132.98 173.7 132.98 164.44 139.71 167.98 150.59 158.72 143.86 149.46 150.59 153 139.71 143.74 132.98 155.18 132.98 158.72 122.09"/><polygon class="cls-7" points="223.57 122.09 227.11 132.98 238.56 132.98 229.3 139.71 232.83 150.59 223.57 143.86 214.31 150.59 217.85 139.71 208.59 132.98 220.04 132.98 223.57 122.09"/><polygon class="cls-7" points="-3.41 149.66 0.12 160.55 11.57 160.55 2.31 167.28 5.85 178.16 -3.41 171.43 -12.67 178.16 -9.14 167.28 -18.4 160.55 -6.95 160.55 -3.41 149.66"/><polygon class="cls-7" points="61.44 149.66 64.98 160.55 76.42 160.55 67.16 167.28 70.7 178.16 61.44 171.43 52.18 178.16 55.72 167.28 46.46 160.55 57.9 160.55 61.44 149.66"/><polygon class="cls-7" points="126.29 149.66 129.83 160.55 141.28 160.55 132.02 167.28 135.55 178.16 126.29 171.43 117.03 178.16 120.57 167.28 111.31 160.55 122.76 160.55 126.29 149.66"/><polygon class="cls-7" points="191.15 149.66 194.68 160.55 206.13 160.55 196.87 167.28 200.41 178.16 191.15 171.43 181.89 178.16 185.42 167.28 176.16 160.55 187.61 160.55 191.15 149.66"/><polygon class="cls-7" points="29.01 177.23 32.55 188.12 44 188.12 34.74 194.84 38.27 205.73 29.01 199 19.75 205.73 23.29 194.84 14.03 188.12 25.48 188.12 29.01 177.23"/><polygon class="cls-7" points="93.87 177.23 97.4 188.12 108.85 188.12 99.59 194.84 103.13 205.73 93.87 199 84.61 205.73 88.14 194.84 78.88 188.12 90.33 188.12 93.87 177.23"/><polygon class="cls-7" points="158.72 177.23 162.26 188.12 173.7 188.12 164.44 194.84 167.98 205.73 158.72 199 149.46 205.73 153 194.84 143.74 188.12 155.18 188.12 158.72 177.23"/><polygon class="cls-7" points="223.57 177.23 227.11 188.12 238.56 188.12 229.3 194.84 232.83 205.73 223.57 199 214.31 205.73 217.85 194.84 208.59 188.12 220.04 188.12 223.57 177.23"/><polygon class="cls-7" points="-3.41 204.8 0.12 215.69 11.57 215.69 2.31 222.41 5.85 233.3 -3.41 226.57 -12.67 233.3 -9.14 222.41 -18.4 215.69 -6.95 215.69 -3.41 204.8"/><polygon class="cls-7" points="61.44 204.8 64.98 215.69 76.42 215.69 67.16 222.41 70.7 233.3 61.44 226.57 52.18 233.3 55.72 222.41 46.46 215.69 57.9 215.69 61.44 204.8"/><polygon class="cls-7" points="126.29 204.8 129.83 215.69 141.28 215.69 132.02 222.41 135.55 233.3 126.29 226.57 117.03 233.3 120.57 222.41 111.31 215.69 122.76 215.69 126.29 204.8"/><polygon class="cls-7" points="191.15 204.8 194.68 215.69 206.13 215.69 196.87 222.41 200.41 233.3 191.15 226.57 181.89 233.3 185.42 222.41 176.16 215.69 187.61 215.69 191.15 204.8"/><polygon class="cls-7" points="29.01 232.37 32.55 243.25 44 243.25 34.74 249.98 38.27 260.87 29.01 254.14 19.75 260.87 23.29 249.98 14.03 243.25 25.48 243.25 29.01 232.37"/><polygon class="cls-7" points="93.87 232.37 97.4 243.25 108.85 243.25 99.59 249.98 103.13 260.87 93.87 254.14 84.61 260.87 88.14 249.98 78.88 243.25 90.33 243.25 93.87 232.37"/><polygon class="cls-7" points="158.72 232.37 162.26 243.25 173.7 243.25 164.44 249.98 167.98 260.87 158.72 254.14 149.46 260.87 153 249.98 143.74 243.25 155.18 243.25 158.72 232.37"/><polygon class="cls-7" points="223.57 232.37 227.11 243.25 238.56 243.25 229.3 249.98 232.83 260.87 223.57 254.14 214.31 260.87 217.85 249.98 208.59 243.25 220.04 243.25 223.57 232.37"/></g></svg>